<svg width="960" height="600" viewBox="0 0 960 600" xmlns="http://www.w3.org/2000/svg" role="img" aria-label="Premium controls preview">
  <defs><linearGradient id="g1" x1="0" y1="0" x2="1" y2="1"><stop offset="0" stop-color="#00d4ff" stop-opacity="0.15"/><stop offset="1" stop-color="#6366f1" stop-opacity="0.15"/></linearGradient></defs>
  <rect x="0" y="0" width="960" height="600" rx="24" fill="#0f1729" />
  <rect x="20" y="20" width="920" height="560" rx="18" fill="url(#g1)"/>
  <rect x="60" y="90" width="840" height="420" rx="16" fill="#0a0f1c" opacity="0.95"/>
  <circle cx="120" cy="60" r="8" fill="#ef4444"/><circle cx="146" cy="60" r="8" fill="#f59e0b"/><circle cx="172" cy="60" r="8" fill="#10b981"/>
  <rect x="200" y="48" width="360" height="24" rx="8" fill="#1f2937"/>
  <g transform="translate(300 180)"><circle cx="0" cy="0" r="44" fill="#00d4ff" opacity="0.9"/>
    <path d="M -10 -14 L -10 14 C -10 16 -8 18 -6 18 C -4 18 -2 16 -2 14 L -2 -14 C -2 -16 0 -18 2 -18 C 4 -18 6 -16 6 -14 L 6 14 C 6 16 8 18 10 18 C 12 18 14 16 14 14 L 14 -14" fill="#e2f2fb"/></g>
  <rect x="500" y="210" width="360" height="40" rx="8" fill="#1e293b"/>
  <rect x="500" y="270" width="300" height="14" rx="7" fill="#1e293b"/>
  <rect x="500" y="298" width="260" height="14" rx="7" fill="#1e293b"/>
  <rect x="500" y="326" width="220" height="14" rx="7" fill="#1e293b"/>
  <rect x="500" y="354" width="180" height="14" rx="7" fill="#1e293b"/>
  <rect x="500" y="382" width="220" height="14" rx="7" fill="#1e293b"/>
  <rect x="500" y="410" width="260" height="14" rx="7" fill="#1e293b"/>
</svg>
